<?xml version="1.0" standalone="no"?>
<!DOCTYPE svg PUBLIC "-//W3C//DTD SVG 20010904//EN"
 "http://www.w3.org/TR/2001/REC-SVG-20010904/DTD/svg10.dtd">
<svg version="1.0" xmlns="http://www.w3.org/2000/svg"
 width="260.000000pt" height="260.000000pt" viewBox="0 0 260.000000 260.000000"
 preserveAspectRatio="xMidYMid meet">
<metadata>
Created by potrace 1.14, written by Peter Selinger 2001-2017
</metadata>
<g transform="translate(0.000000,260.000000) scale(0.100000,-0.100000)"
fill="#000000" stroke="none">
<path d="M859 2598 c-1 -2 -2 -102 -3 -223 l-1 -220 -210 -3 -210 -2 2 -853
c1 -468 2 -859 2 -867 1 -13 29 -15 205 -15 176 1 205 -2 208 -15 2 -8 4 -102
3 -208 l0 -192 435 2 435 3 0 203 c0 195 0 203 -20 207 -11 3 -104 4 -208 2
-160 -2 -187 0 -188 13 0 8 0 110 0 227 l0 211 -220 0 c-121 0 -223 3 -226 6
-7 7 -8 845 0 852 3 3 104 6 224 7 l218 2 2 115 c1 63 2 156 2 206 l1 91 205
1 205 1 1 -32 c0 -18 1 -111 1 -209 l0 -176 227 1 226 2 0 205 0 205 -225 5
-225 5 0 220 0 220 -432 3 c-238 1 -434 1 -434 0z"/>
<path d="M1723 659 l0 -209 226 0 226 0 -1 203 c-1 111 -2 205 -3 210 0 4
-101 7 -224 7 l-224 -1 0 -210z"/>
</g>
</svg>
